<?xml version="1.0" encoding="UTF-8"?>
<svg xmlns="http://www.w3.org/2000/svg" viewBox="0 0 256 256">
  <defs>
    <clipPath id="hexClip">
      <polygon points="64.0,17.149 192.0,17.149 256.0,128.0 192.0,238.851 64.0,238.851 0.0,128.0"/>
    </clipPath>

    <linearGradient id="warmVivid" x1="36" y1="128" x2="220" y2="128" gradientUnits="userSpaceOnUse">
      <stop offset="0"    stop-color="#fff0bf" stop-opacity="0"/>
      <stop offset="0.28" stop-color="#ffe7a1" stop-opacity="0.95"/>
      <stop offset="0.48" stop-color="#ffd166" stop-opacity="1"/>
      <stop offset="0.62" stop-color="#ffb703" stop-opacity="1"/>
      <stop offset="0.76" stop-color="#fca311" stop-opacity="0.95"/>
      <stop offset="1"    stop-color="#fca311" stop-opacity="0"/>
    </linearGradient>

    <linearGradient id="coolFade" x1="56" y1="148" x2="200" y2="148" gradientUnits="userSpaceOnUse">
      <stop offset="0"   stop-color="#7b96b8" stop-opacity="0"/>
      <stop offset="0.5" stop-color="#9fb6d3" stop-opacity="0.75"/>
      <stop offset="1"   stop-color="#3a506b" stop-opacity="0"/>
    </linearGradient>

    <radialGradient id="coreGlow" cx="128" cy="128" r="20" gradientUnits="userSpaceOnUse">
      <stop offset="0" stop-color="#fff9e1"/>
      <stop offset="0.5" stop-color="#ffe7a8"/>
      <stop offset="1" stop-color="#ffbf4d"/>
    </radialGradient>
  </defs>

  <polygon points="64.0,17.149 192.0,17.149 256.0,128.0 192.0,238.851 64.0,238.851 0.0,128.0"
           fill="#1b263b" stroke="#0d1b2a" stroke-width="10" stroke-linejoin="round"/>

  <g clip-path="url(#hexClip)" fill="none" stroke-linecap="round">
    <!-- Keep arcs conservative so they sit well inside the maximal hex -->
    <path d="M50 116 A96 72 25 1 1 206 116" stroke="url(#warmVivid)" stroke-width="24"/>
    <path d="M72 124 A74 52 25 1 1 184 124"  stroke="url(#warmVivid)" stroke-width="16"/>
    <path d="M98 130 A46 32 25 1 1 158 130"  stroke="url(#warmVivid)" stroke-width="10"/>

    <path d="M54 172 A80 58 -25 0 0 202 172" stroke="url(#warmVivid)" stroke-width="16"/>
    <path d="M70 188 A62 46 -25 0 0 186 188"  stroke="url(#warmVivid)" stroke-width="12"/>

    <path d="M58 150 A90 64 25 0 0 198 150" stroke="url(#coolFade)" stroke-width="8"/>

    <circle cx="128" cy="128" r="92" fill="url(#coreGlow)" opacity="0.12"/>
  </g>

  <circle cx="128" cy="128" r="11" fill="url(#coreGlow)"/>
</svg>
